<svg width="37" height="37" viewBox="0 0 37 37" fill="none" xmlns="http://www.w3.org/2000/svg">
    <path d="M18.7273 23.4545C22.4426 23.4545 25.4545 20.4426 25.4545 16.7273C25.4545 13.0119 22.4426 10 18.7273 10C15.0119 10 12 13.0119 12 16.7273C12 20.4426 15.0119 23.4545 18.7273 23.4545Z" stroke="currentColor" stroke-width="2" stroke-linecap="round" stroke-linejoin="round"/>
    <path d="M18.5 35C27.6127 35 35 27.6127 35 18.5C35 9.3873 27.6127 2 18.5 2C9.3873 2 2 9.3873 2 18.5C2 27.6127 9.3873 35 18.5 35Z" stroke="currentColor" stroke-width="2" stroke-linecap="round" stroke-linejoin="round"/>
    <path d="M10 32C10 29.6131 10.8955 27.3239 12.4896 25.636C14.0837 23.9482 16.2457 23 18.5 23C20.7543 23 22.9163 23.9482 24.5104 25.636C26.1045 27.3239 27 29.6131 27 32" stroke="currentColor" stroke-width="2" stroke-linecap="round" stroke-linejoin="round"/>
</svg>